<svg width="31" height="33" viewBox="0 0 31 33" fill="none" xmlns="http://www.w3.org/2000/svg">
<path fill-rule="evenodd" clip-rule="evenodd" d="M15.7376 0.656262C15.7352 0.657057 15.7327 0.657868 15.7302 0.658694C15.7261 0.658654 15.722 0.658654 15.7179 0.658694C15.6456 0.663809 15.5748 0.681508 15.5087 0.710974L1.28359 6.72079C1.13752 6.74356 1.00464 6.81754 0.909268 6.92917C0.813892 7.0408 0.762398 7.18263 0.764206 7.3287V25.5685C0.763486 25.6551 0.78153 25.7409 0.817129 25.8201C0.817934 25.8226 0.818754 25.825 0.819591 25.8274C0.824591 25.8385 0.829926 25.8495 0.83559 25.8603C0.901718 25.9915 1.01361 26.0947 1.15066 26.1509L15.3869 32.1631C15.5083 32.2496 15.6575 32.2893 15.8065 32.275C15.9144 32.2693 16.0188 32.2358 16.1093 32.1777L30.3787 26.1509C30.4789 26.1106 30.5665 26.0451 30.6328 25.9608C30.6992 25.8765 30.7418 25.7764 30.7566 25.6706C30.7585 25.6597 30.7602 25.6488 30.7615 25.6378C30.7626 25.6281 30.7634 25.6183 30.764 25.6086C30.7642 25.5985 30.7642 25.5883 30.764 25.5782C30.764 25.575 30.764 25.5717 30.764 25.5685V7.3287C30.7656 7.18447 30.7152 7.04437 30.6218 6.93346C30.5285 6.82254 30.3983 6.74802 30.2544 6.72322L16.0182 0.710974C16.0057 0.704875 15.993 0.699197 15.9801 0.693953C15.9784 0.693135 15.9768 0.692324 15.9752 0.691521C15.9569 0.68622 15.9384 0.681757 15.9198 0.678147C15.9137 0.676432 15.9075 0.67481 15.9013 0.673284C15.8875 0.669561 15.8735 0.666317 15.8595 0.663557C15.8533 0.662655 15.8472 0.661844 15.841 0.661126C15.8275 0.659873 15.814 0.659062 15.8004 0.658694C15.7795 0.656828 15.7586 0.656017 15.7376 0.656262ZM15.7635 1.9268L18.7801 3.19976L5.99493 8.60167C5.98244 8.60693 5.97013 8.61261 5.95801 8.61869L2.94019 7.34329L15.7647 1.9268H15.7635ZM20.3456 3.86239L24.0059 5.4077L10.982 10.9105C10.8616 10.9616 10.761 11.0493 10.6945 11.1608C10.6281 11.2723 10.5995 11.4019 10.6127 11.5306C10.6105 11.554 10.6097 11.5776 10.6103 11.6011V18.1058L9.27614 16.1276C9.19299 16.0045 9.06723 15.9156 8.92244 15.8775C8.77765 15.8395 8.62377 15.8549 8.48968 15.9209L6.918 16.6966V9.53542L20.3456 3.86239ZM25.5714 6.06789L28.5904 7.34329L15.7647 12.7598L12.7481 11.4868L25.5357 6.08491C25.5482 6.07964 25.5605 6.07397 25.5726 6.06789H25.5714ZM1.99497 8.26488L5.68724 9.82478V17.6802C5.68725 17.7839 5.71409 17.8858 5.76521 17.9764C5.81634 18.0669 5.89005 18.143 5.97934 18.1975C6.06863 18.2519 6.17054 18.2829 6.27537 18.2875C6.38021 18.2921 6.48449 18.2701 6.57831 18.2237L8.55245 17.2474L10.6792 20.3988C10.7467 20.5273 10.8585 20.6277 10.9943 20.6821C11.0124 20.689 11.0309 20.6951 11.0497 20.7003C11.0505 20.7011 11.0513 20.7019 11.0521 20.7028C11.0915 20.714 11.1319 20.7213 11.1727 20.7246C11.1932 20.7265 11.2137 20.7273 11.2343 20.7271C11.2548 20.7273 11.2754 20.7265 11.2958 20.7246C11.3165 20.7216 11.3371 20.7176 11.3574 20.7125C11.3698 20.7096 11.3821 20.7064 11.3943 20.7028C11.4013 20.7013 11.4083 20.6996 11.4152 20.6979C11.5528 20.6551 11.6709 20.566 11.7487 20.4459C11.8266 20.3259 11.8592 20.1827 11.841 20.0413V12.4279L15.1481 13.8236V30.7406L1.99497 25.1843V8.26488ZM29.5332 8.26731V25.1843L16.3789 30.743V13.8236L29.5332 8.26731ZM21.8077 22.2396C21.8053 22.2403 21.8028 22.2412 21.8003 22.242C21.7239 22.2456 21.6487 22.2634 21.5788 22.2943L17.9911 23.8092C17.841 23.8724 17.7224 23.9919 17.6615 24.1415C17.6005 24.2911 17.6022 24.4584 17.6662 24.6068C17.7302 24.7551 17.8512 24.8722 18.0026 24.9324C18.154 24.9926 18.3235 24.9909 18.4736 24.9277L22.065 23.4128C22.2012 23.3602 22.3141 23.2614 22.3833 23.134C22.4525 23.0067 22.4735 22.8592 22.4425 22.7179C22.4115 22.5766 22.3306 22.4509 22.2143 22.3632C22.098 22.2756 21.9538 22.2317 21.8077 22.2396ZM25.3892 23.1514C25.314 23.1555 25.2402 23.1732 25.1714 23.2037L21.58 24.7186L17.9911 26.236C17.841 26.2992 17.7224 26.4187 17.6615 26.5683C17.6005 26.7178 17.6022 26.8852 17.6662 27.0335C17.7302 27.1819 17.8512 27.299 18.0026 27.3592C18.154 27.4194 18.3235 27.4177 18.4736 27.3545L22.065 25.8372L25.6539 24.3198C25.7874 24.2648 25.897 24.1652 25.9635 24.0383C26.0301 23.9114 26.0492 23.7654 26.0176 23.626C25.986 23.4865 25.9058 23.3625 25.7908 23.2758C25.6759 23.189 25.5337 23.145 25.3892 23.1514Z" fill="black"/>
</svg>
