<svg width="313" height="377" viewBox="0 0 313 377" fill="none" xmlns="http://www.w3.org/2000/svg">
<g clip-path="url(#clip0_139_7)" filter="url(#filter0_d_139_7)">
<path d="M228.605 43.9792C214.583 44.9103 182.276 54.0113 169.147 60.6622C115.34 87.9142 80.8965 138.581 75.4849 198.067C74.4449 210.969 76.0666 235.656 78.9974 249.126L81.0576 258.729L89.4592 246.634L97.6789 234.588L96.9686 228.819C94.268 208.732 97.4169 180.774 104.773 161.339L107.203 154.899L116.164 153.7C129.703 151.729 152.489 144.274 165.8 137.573L177.526 131.505L161.119 161.748L144.713 191.991L149.368 188.654C152.026 186.943 159.225 182.905 165.469 180.011L176.799 174.638L204.188 126.405C219.198 99.9694 231.974 78.551 232.437 78.8144C234.061 79.7361 238.545 98.8419 239.834 110.613C241.354 122.517 240.583 142.778 238.264 153.881L236.928 161.095L247.016 161.151C252.623 161.268 257.518 161.288 257.816 161.303C258.841 161.119 260.626 148.793 261.287 136.288C263.108 106.35 255.89 73.4254 241.977 47.4324L239.75 43.2543L228.605 43.9792ZM202.184 82.9484C182.548 105.378 159.304 120.391 131.343 128.587L119.578 132.026L125.145 123.841C141.058 100.678 170.077 80.3565 201.159 70.713L212.576 67.0767L210.818 70.9845C209.864 73.2032 205.877 78.6054 202.184 82.9484Z" fill="#248232"/>
<path d="M235.463 182.036C217.969 183.142 191.94 189.828 176.381 197.247C154.15 207.776 132.613 224.372 117.547 242.803C111.613 250.013 104.763 260.997 87.9085 290.679L65.9847 329.288L74.6806 334.226L83.3765 339.164L96.0831 316.787L108.724 294.525L122.395 292.322C154.861 286.991 187.082 270.481 211.641 246.401C223.913 234.51 234.738 219.497 243.67 201.876C251.123 187.402 252.995 182.485 251.256 181.497C250.792 181.234 243.615 181.452 235.463 182.036ZM211.902 214.35C194.158 239.387 163.058 260.673 132.798 268.33L123.477 270.703L129.308 262.055C140.888 245.171 163.181 226.704 183.513 217.089C195.207 211.617 214.423 205.048 216.046 205.97C216.858 206.431 215.46 209.164 211.902 214.35Z" fill="#248232"/>
</g>
<defs>
<filter id="filter0_d_139_7" x="-3.03723" y="0.785522" width="319.985" height="383.904" filterUnits="userSpaceOnUse" color-interpolation-filters="sRGB">
<feFlood flood-opacity="0" result="BackgroundImageFix"/>
<feColorMatrix in="SourceAlpha" type="matrix" values="0 0 0 0 0 0 0 0 0 0 0 0 0 0 0 0 0 0 127 0" result="hardAlpha"/>
<feOffset dy="4"/>
<feGaussianBlur stdDeviation="2"/>
<feComposite in2="hardAlpha" operator="out"/>
<feColorMatrix type="matrix" values="0 0 0 0 0 0 0 0 0 0 0 0 0 0 0 0 0 0 0.25 0"/>
<feBlend mode="normal" in2="BackgroundImageFix" result="effect1_dropShadow_139_7"/>
<feBlend mode="normal" in="SourceGraphic" in2="effect1_dropShadow_139_7" result="shape"/>
</filter>
<clipPath id="clip0_139_7">
<rect width="167.235" height="337.317" fill="white" transform="translate(167.522 0.785522) rotate(29.5892)"/>
</clipPath>
</defs>
</svg>
